<svg xmlns="http://www.w3.org/2000/svg" viewBox="0 0 192.62 133.58"><defs><style>.cls-1{fill:none;stroke:#fff;stroke-miterlimit:10;stroke-width:2px;}.cls-2,.cls-3{fill:#fff;}.cls-3{opacity:0.5;}</style></defs><g id="Layer_2" data-name="Layer 2"><g id="Website_Homepage" data-name="Website Homepage"><g id="Preset_Blog" data-name="Preset Blog"><rect class="cls-1" x="1" y="1" width="190.62" height="131.58" rx="17.46"/><rect class="cls-2" x="49.84" y="15.99" width="44.61" height="4.12"/><rect class="cls-3" x="49.84" y="23.5" width="92.95" height="1.45"/><rect class="cls-3" x="49.84" y="25.99" width="92.95" height="1.45"/><rect class="cls-3" x="49.84" y="28.49" width="92.95" height="1.45"/><rect class="cls-3" x="49.84" y="30.99" width="92.95" height="1.45"/><rect class="cls-3" x="49.84" y="33.49" width="92.95" height="1.45"/><rect class="cls-3" x="49.84" y="35.98" width="92.95" height="1.45"/><rect class="cls-3" x="49.84" y="38.48" width="92.95" height="1.45"/><rect class="cls-3" x="49.84" y="40.98" width="92.95" height="1.45"/><rect class="cls-2" x="49.84" y="58.19" width="44.61" height="4.12"/><rect class="cls-3" x="49.84" y="65.7" width="92.95" height="1.45"/><rect class="cls-3" x="49.84" y="68.19" width="92.95" height="1.45"/><rect class="cls-3" x="49.84" y="70.69" width="92.95" height="1.45"/><rect class="cls-3" x="49.84" y="73.19" width="92.95" height="1.45"/><rect class="cls-3" x="49.84" y="75.69" width="92.95" height="1.45"/><rect class="cls-3" x="49.84" y="78.18" width="92.95" height="1.45"/><rect class="cls-3" x="49.84" y="80.68" width="92.95" height="1.45"/><rect class="cls-3" x="49.84" y="83.18" width="92.95" height="1.45"/><rect class="cls-2" x="49.84" y="105.64" width="44.61" height="4.12"/><rect class="cls-3" x="49.84" y="113.15" width="92.95" height="1.45"/><rect class="cls-3" x="49.84" y="115.65" width="92.95" height="1.45"/><rect class="cls-3" x="49.84" y="118.14" width="92.95" height="1.45"/><rect class="cls-3" x="49.84" y="120.64" width="92.95" height="1.45"/><rect class="cls-3" x="49.84" y="123.14" width="92.95" height="1.45"/><rect class="cls-3" x="49.84" y="125.64" width="92.95" height="1.45"/><rect class="cls-3" x="49.84" y="128.13" width="92.95" height="1.45"/></g></g></g></svg>