<svg xmlns="http://www.w3.org/2000/svg" xmlns:xlink="http://www.w3.org/1999/xlink" viewBox="0 0 425.36 339.28"><defs><style>.cls-1{fill:none;}.cls-2{fill:url(#Unbenannter_Verlauf_191);}.cls-3{fill:#030304;}.cls-4{fill:url(#iMac_Silber_Standfuß);}.cls-5{clip-path:url(#clip-path);}.cls-6{fill:#1f1f24;}</style><linearGradient id="Unbenannter_Verlauf_191" y1="146.2" x2="425.36" y2="146.2" gradientUnits="userSpaceOnUse"><stop offset="0" stop-color="#a5a6a9"/><stop offset="0.5" stop-color="#c3c4c8"/><stop offset="1" stop-color="#b8b7b7"/></linearGradient><linearGradient id="iMac_Silber_Standfuß" x1="212.68" y1="339.28" x2="212.68" y2="292.41" gradientUnits="userSpaceOnUse"><stop offset="0" stop-color="#efefef"/><stop offset="0" stop-color="#e8e8e8"/><stop offset="0.01" stop-color="#cdcdce"/><stop offset="0.02" stop-color="#b9b9bb"/><stop offset="0.04" stop-color="#aaaaad"/><stop offset="0.05" stop-color="#a2a2a4"/><stop offset="0.07" stop-color="#9f9fa2"/><stop offset="0.08" stop-color="#9f9fa2"/><stop offset="0.25" stop-color="#7f8084"/><stop offset="0.29" stop-color="#9fa0a2"/><stop offset="0.37" stop-color="#eef0ef"/><stop offset="0.38" stop-color="#fcfefc"/><stop offset="0.44" stop-color="#f7f8f7"/><stop offset="0.53" stop-color="#e8e7e8"/><stop offset="0.6" stop-color="#d3d3d4"/><stop offset="0.78" stop-color="#a6a6a9"/><stop offset="0.92" stop-color="#8a8a8e"/><stop offset="1" stop-color="#7f8084"/></linearGradient><clipPath id="clip-path"><rect id="BACKUP_DISPLAY" data-name="BACKUP DISPLAY" class="cls-1" x="17.77" y="17.23" width="389.99" height="219.46"/></clipPath></defs><g id="Layer_2" data-name="Layer 2"><g id="Website_Homepage" data-name="Website Homepage"><g id="iMac"><path id="display_frame" data-name="display frame" class="cls-2" d="M414.69,0h-404A10.67,10.67,0,0,0,0,10.67V281.74a10.67,10.67,0,0,0,10.67,10.67h404a10.67,10.67,0,0,0,10.67-10.67V10.67A10.67,10.67,0,0,0,414.69,0Zm-6.94,236.68h-390V17.23h390Z"/><path id="display_edge" data-name="display edge" class="cls-3" d="M415.43,0H9.93A9.92,9.92,0,0,0,0,9.93V253.31H425.36V9.93A9.93,9.93,0,0,0,415.43,0Zm-7.68,236.68h-390V17.23h390Z"/><path id="Standfuß" class="cls-4" d="M275.29,335.72c-10.24-6.63-13.28-7.35-14.7-14l-3.23-29.3H168l-3.23,29.3c-1.41,6.66-4.46,7.38-14.69,14-5.51,3.56,2.37,3.56,6.15,3.56H269.13C272.91,339.28,280.8,339.28,275.29,335.72Z"/><g class="cls-5"><rect class="cls-6" x="12.47" y="8.74" width="400.42" height="234.54"/></g></g></g></g></svg>