<svg xmlns="http://www.w3.org/2000/svg" viewBox="0 0 146.98 102.08"><defs><style>.cls-1{fill:none;stroke:#fff;stroke-miterlimit:10;stroke-width:2px;}.cls-2{fill:#fff;}</style></defs><g id="Layer_2" data-name="Layer 2"><g id="Website_Homepage" data-name="Website Homepage"><g id="Maps"><rect class="cls-1" x="1" y="1" width="144.98" height="100.08" rx="17.46"/><path class="cls-2" d="M94.74,29.58a23.68,23.68,0,0,0-14-11.8l-.15.07.07-.08a24.27,24.27,0,0,0-7.27-1.1,23.8,23.8,0,0,0-18.29,8.55l.08.13-.07-.06a23.82,23.82,0,0,0-5.6,15.44A27.6,27.6,0,0,0,51.84,52a.25.25,0,0,0,0,.06c2.57,5.88,7.49,11,10.85,15.56l0,0a67,67,0,0,1,5.38,8,41.07,41.07,0,0,1,3,7.56c.6,1.73,1.17,2.26,2.37,2.26s1.91-.89,2.37-2.26a42,42,0,0,1,2.86-7.39c4.51-8.5,11.87-14.55,16-22.83a28,28,0,0,0,2.72-12.14A24,24,0,0,0,94.76,29.6M80.34,46.71l.17-.2Zm-6.88,3.11a9.16,9.16,0,0,1-7.33-14.65l-.32.38a7.19,7.19,0,0,1,.57-.81h0l.05,0a9.16,9.16,0,1,1,7,15Z"/></g></g></g></svg>