<svg xmlns="http://www.w3.org/2000/svg" viewBox="0 0 196.39 20.54"><defs><style>.cls-1{fill:#fff;}</style></defs><g id="Layer_2" data-name="Layer 2"><g id="Website_Homepage" data-name="Website Homepage"><path class="cls-1" d="M0,.5H2.93L14.24,16.73h.06V.5h2.32V20H13.69L2.37,3.81H2.32V20H0Z"/><path class="cls-1" d="M31.94,20.54a10.51,10.51,0,0,1-4.1-.78,9.55,9.55,0,0,1-3.23-2.14,9.66,9.66,0,0,1-2.13-3.25,11,11,0,0,1-.76-4.1,11,11,0,0,1,.76-4.1,9.7,9.7,0,0,1,2.13-3.26A9.85,9.85,0,0,1,27.84.77a11.3,11.3,0,0,1,8.2,0,9.91,9.91,0,0,1,3.22,2.14,9.55,9.55,0,0,1,2.13,3.26,10.84,10.84,0,0,1,.76,4.1,10.84,10.84,0,0,1-.76,4.1A9.66,9.66,0,0,1,36,19.76,10.55,10.55,0,0,1,31.94,20.54Zm0-2.16a7.64,7.64,0,0,0,3.13-.63A7.25,7.25,0,0,0,37.51,16a8.1,8.1,0,0,0,1.59-2.58,8.73,8.73,0,0,0,.57-3.16,8.69,8.69,0,0,0-.57-3.16,7.89,7.89,0,0,0-1.59-2.58,7.25,7.25,0,0,0-2.44-1.74,8,8,0,0,0-6.27,0,7.35,7.35,0,0,0-2.44,1.74,7.89,7.89,0,0,0-1.59,2.58,9.2,9.2,0,0,0,0,6.32A8.1,8.1,0,0,0,26.36,16a7.35,7.35,0,0,0,2.44,1.74A7.66,7.66,0,0,0,31.94,18.38Z"/><path class="cls-1" d="M53.6.5h2.19L64.09,20h-2.7l-2-4.8H49.63l-2,4.8H45Zm1,3h0l-4.06,9.6h8Z"/><path class="cls-1" d="M86.4,4a3.47,3.47,0,0,0-1.55-1.37,4.86,4.86,0,0,0-2-.43,5.91,5.91,0,0,0-1.51.2A4.16,4.16,0,0,0,80,2.93a2.67,2.67,0,0,0-1,1,3,3,0,0,0-.36,1.49,3.26,3.26,0,0,0,.2,1.17,2.59,2.59,0,0,0,.68.93,5.25,5.25,0,0,0,1.27.77,17.46,17.46,0,0,0,2,.72c.75.23,1.49.49,2.19.77a7,7,0,0,1,1.88,1,4.66,4.66,0,0,1,1.3,1.58,5.33,5.33,0,0,1,.48,2.39,5.24,5.24,0,0,1-.58,2.54,5.17,5.17,0,0,1-1.53,1.78,6.74,6.74,0,0,1-2.19,1.05,9.6,9.6,0,0,1-2.57.35,9,9,0,0,1-1.71-.16,8.12,8.12,0,0,1-1.64-.46,6.94,6.94,0,0,1-1.48-.83,4.94,4.94,0,0,1-1.19-1.26l2-1.63a4,4,0,0,0,1.77,1.63,5.35,5.35,0,0,0,2.4.55,5.29,5.29,0,0,0,1.5-.22,4.56,4.56,0,0,0,1.37-.65,3.58,3.58,0,0,0,1-1.06A2.72,2.72,0,0,0,86.15,15a3,3,0,0,0-.31-1.48,2.7,2.7,0,0,0-.93-1,7.14,7.14,0,0,0-1.61-.74L81,11a13.61,13.61,0,0,1-1.93-.76,5.81,5.81,0,0,1-1.53-1,4.34,4.34,0,0,1-1-1.5,5.22,5.22,0,0,1-.38-2.08,5.19,5.19,0,0,1,.56-2.46,5,5,0,0,1,1.49-1.75A6.7,6.7,0,0,1,80.35.36,8.5,8.5,0,0,1,82.83,0a8.6,8.6,0,0,1,3,.51A5.89,5.89,0,0,1,88.3,2.29Z"/><path class="cls-1" d="M93.85.5h12.28V2.65h-10V8.78h9.3v2.15h-9.3v7h10.46V20H93.85Z"/><path class="cls-1" d="M125.29,4.53a5.58,5.58,0,0,0-2.18-1.78,6.41,6.41,0,0,0-2.71-.6,6.66,6.66,0,0,0-3,.67,7.39,7.39,0,0,0-2.36,1.78,8,8,0,0,0-1.55,2.59,8.66,8.66,0,0,0-.55,3.08,9,9,0,0,0,.55,3.19A8,8,0,0,0,115,16a7.21,7.21,0,0,0,2.35,1.73,7.13,7.13,0,0,0,3,.63,7,7,0,0,0,3.2-.7,7.32,7.32,0,0,0,2.46-2l1.74,1.46a8,8,0,0,1-3.19,2.6,10.27,10.27,0,0,1-4.21.83,9.87,9.87,0,0,1-3.92-.78,9.45,9.45,0,0,1-3.16-2.14,10,10,0,0,1-2.1-3.24,11,11,0,0,1-.76-4.11,10.93,10.93,0,0,1,.74-4,9.71,9.71,0,0,1,2-3.26,9.76,9.76,0,0,1,7.15-3,10.42,10.42,0,0,1,3.83.72,7.09,7.09,0,0,1,3.07,2.34Z"/><path class="cls-1" d="M141.49,20.54a10.51,10.51,0,0,1-4.1-.78,9.65,9.65,0,0,1-3.23-2.14A9.49,9.49,0,0,1,132,14.37a10.84,10.84,0,0,1-.76-4.1,10.84,10.84,0,0,1,.76-4.1,9.53,9.53,0,0,1,2.12-3.26A10,10,0,0,1,137.39.77a11.3,11.3,0,0,1,8.2,0,10,10,0,0,1,3.23,2.14,9.53,9.53,0,0,1,2.12,3.26,10.84,10.84,0,0,1,.76,4.1,10.84,10.84,0,0,1-.76,4.1,9.49,9.49,0,0,1-2.12,3.25,9.65,9.65,0,0,1-3.23,2.14A10.51,10.51,0,0,1,141.49,20.54Zm0-2.16a7.64,7.64,0,0,0,3.13-.63A7.39,7.39,0,0,0,147.07,16a7.9,7.9,0,0,0,1.58-2.58,8.73,8.73,0,0,0,.57-3.16,8.69,8.69,0,0,0-.57-3.16,7.7,7.7,0,0,0-1.58-2.58,7.39,7.39,0,0,0-2.45-1.74,8,8,0,0,0-6.26,0,7.29,7.29,0,0,0-2.45,1.74,7.7,7.7,0,0,0-1.58,2.58,8.69,8.69,0,0,0-.57,3.16,8.73,8.73,0,0,0,.57,3.16A7.9,7.9,0,0,0,135.91,16a7.29,7.29,0,0,0,2.45,1.74A7.61,7.61,0,0,0,141.49,18.38Z"/><path class="cls-1" d="M156.81.5h2.92l11.32,16.23h.06V.5h2.32V20H170.5L159.18,3.81h-.05V20h-2.32Z"/><path class="cls-1" d="M179.3.5h7.51a10,10,0,0,1,2.05.22,10.21,10.21,0,0,1,2.13.7,9.85,9.85,0,0,1,2,1.26,8.07,8.07,0,0,1,1.72,1.86A9.4,9.4,0,0,1,196,7.05a11,11,0,0,1,.44,3.22,10.93,10.93,0,0,1-.44,3.21A9.46,9.46,0,0,1,194.76,16,8.49,8.49,0,0,1,193,17.86a10.24,10.24,0,0,1-2,1.25,9.69,9.69,0,0,1-2.13.71,10,10,0,0,1-2.05.22H179.3Zm2.32,17.39H186a10.41,10.41,0,0,0,3.12-.45,6.32,6.32,0,0,0,4.14-3.72,8.94,8.94,0,0,0,.61-3.45,8.87,8.87,0,0,0-.61-3.45,6.4,6.4,0,0,0-1.66-2.36,6.67,6.67,0,0,0-2.48-1.37A10.74,10.74,0,0,0,186,2.65h-4.42Z"/></g></g></svg>