<svg xmlns="http://www.w3.org/2000/svg" viewBox="0 0 146.98 102.08"><defs><style>.cls-1{fill:none;stroke:#fff;stroke-miterlimit:10;stroke-width:2px;}.cls-2{fill:#fff;}</style></defs><g id="Layer_2" data-name="Layer 2"><g id="Website_Homepage" data-name="Website Homepage"><g id="Site_Perso" data-name="Site Perso"><rect class="cls-1" x="1" y="1" width="144.98" height="100.08" rx="17.46"/><polygon class="cls-2" points="67.06 51.22 53.11 50.19 44.36 61.1 41.02 47.52 27.94 42.57 39.83 35.2 40.5 21.23 51.18 30.25 64.67 26.57 59.39 39.52 67.06 51.22"/><polygon class="cls-2" points="81.03 49.58 78.9 43.95 73.06 42.51 77.75 38.75 77.32 32.75 82.34 36.05 87.92 33.78 86.33 39.59 90.21 44.19 84.2 44.47 81.03 49.58"/><polygon class="cls-2" points="67.61 80.85 63.35 73.42 54.82 72.71 60.57 66.36 58.6 58.03 66.42 61.54 73.74 57.1 72.81 65.61 79.3 71.2 70.92 72.95 67.61 80.85"/><polygon class="cls-2" points="108.5 80.85 100.37 73.42 89.64 75.9 94.2 65.87 88.52 56.43 99.47 57.66 106.69 49.35 108.9 60.14 119.04 64.44 109.46 69.87 108.5 80.85"/></g></g></g></svg>